<?xml version="1.0" encoding="utf-8"?>
<!-- Generator: Adobe Illustrator 16.0.4, SVG Export Plug-In . SVG Version: 6.00 Build 0)  -->
<!DOCTYPE svg PUBLIC "-//W3C//DTD SVG 1.1//EN" "http://www.w3.org/Graphics/SVG/1.1/DTD/svg11.dtd">
<svg version="1.1" id="Layer_1" xmlns="http://www.w3.org/2000/svg" xmlns:xlink="http://www.w3.org/1999/xlink" x="0px" y="0px"
	 width="44.904px" height="32px" viewBox="142.491 173.599 44.904 32" enable-background="new 142.491 173.599 44.904 32"
	 xml:space="preserve">
<path fill="#000000" d="M186.675,202.591l-12.643-13.709l12.654-12.677c0.262-0.262,0.709-0.076,0.709,0.294v25.81
	C187.395,202.688,186.93,202.87,186.675,202.591z M167.364,195.561c-0.726,0.727-1.71,1.135-2.738,1.135h-0.032
	c-1.045,0-2.048-0.414-2.788-1.153l-3.748-3.741l-12.859,13.092c-0.258,0.262-0.072,0.706,0.296,0.706h39.05
	c0.362,0,0.551-0.431,0.306-0.697l-12.874-13.96L167.364,195.561z M164.594,193.788L164.594,193.788c0.278,0,0.54-0.108,0.735-0.305
	l19.143-19.175c0.261-0.262,0.076-0.709-0.294-0.709h-39.231c-0.37,0-0.556,0.448-0.294,0.709l19.208,19.176
	C164.056,193.68,164.316,193.788,164.594,193.788z M142.491,177.262v25.22c0,0.372,0.451,0.557,0.712,0.291L156,189.746
	l-12.8-12.777C142.938,176.707,142.491,176.892,142.491,177.262z"/>
</svg>